# xmcd
#
# Track frame offsets:
# 150
# 17156
# 32331
# 49998
# 68104
# 85315
# 103778
# 120709
# 136090
# 153531
# 170134
# 184363
# 197576
# 213482
# 226098
# 259043
# 273529
# 288407
# 309416
# 321208
#
# Disc length: 4515 seconds
#
#
# Revision: 0
# Processed by: cddbd v1.5.1PL2 Copyright (c) Steve Scherf et al.
# Submitted via: FreeRIP 2.945 
#
DISCID=2311a114
DTITLE=Various Artist - Outback Tracks
DYEAR=2006
DGENRE=Country
TTITLE0=John Williamson - Sing You The Outback
TTITLE1=Lee Kernaghan - The Outback Club
TTITLE2=Beccy Cole - To Feel this Free
TTITLE3=James Blundell and James Reyne - Way Out West
TTITLE4=Adam Harvey - The Shake of A Hand
TTITLE5=Grant Millar - This Is The Year
TTITLE6=Travis Collins - 1000 Memories
TTITLE7=Gina Jeffreys - Hard Working Man
TTITLE8=Brendon Walmsley - Never Never
TTITLE9=Ted Egan - This Land Australia
TTITLE10=The Wolverines - Proud To Be Australian
TTITLE11=Sara Storer - Beautiful Circle
TTITLE12=Troy Cassar-Daley - I Want To Walk That Road With You
TTITLE13=Melinda Schneider - Family Tree
TTITLE14=David Hudson - Walkabout
TTITLE15=Tania Kernaghan - Yee Ha
TTITLE16=Adam Brand - Beating Around The Bush
TTITLE17=Darren Coggan - It's A Sunburnt Country
TTITLE18=Gondwana Voices - A New Gondwana
TTITLE19=Dave Reynolds - 21 Guns
EXTD=
EXTT0=
EXTT1=
EXTT2=
EXTT3=
EXTT4=
EXTT5=
EXTT6=
EXTT7=
EXTT8=
EXTT9=
EXTT10=
EXTT11=
EXTT12=
EXTT13=
EXTT14=
EXTT15=
EXTT16=
EXTT17=
EXTT18=
EXTT19=
PLAYORDER=
